<svg xmlns="http://www.w3.org/2000/svg" width="1024" height="1024" viewBox="0 0 120 120">
<defs>
<linearGradient id="g" x1="0" y1="0" x2="0" y2="1">
<stop offset="0" stop-color="#65D277"></stop><stop offset="0.55" stop-color="#3CBA56"></stop><stop offset="1" stop-color="#1F9C41"></stop>
</linearGradient>
<linearGradient id="gl" x1="0" y1="0" x2="0" y2="1">
<stop offset="0" stop-color="#ffffff" stop-opacity="0.42"></stop><stop offset="1" stop-color="#ffffff" stop-opacity="0"></stop>
</linearGradient>
<clipPath id="cp"><path d="M108.00 60.00 L107.98 72.08 L107.91 76.43 L107.81 79.66 L107.66 82.32 L107.46 84.61 L107.22 86.65 L106.94 88.48 L106.61 90.16 L106.24 91.69 L105.83 93.12 L105.36 94.44 L104.85 95.68 L104.29 96.83 L103.69 97.90 L103.03 98.91 L102.32 99.85 L101.55 100.73 L100.73 101.55 L99.85 102.32 L98.91 103.03 L97.90 103.69 L96.83 104.29 L95.68 104.85 L94.44 105.36 L93.12 105.83 L91.69 106.24 L90.16 106.61 L88.48 106.94 L86.65 107.22 L84.61 107.46 L82.32 107.66 L79.66 107.81 L76.43 107.91 L72.08 107.98 L60.00 108.00 L47.92 107.98 L43.57 107.91 L40.34 107.81 L37.68 107.66 L35.39 107.46 L33.35 107.22 L31.52 106.94 L29.84 106.61 L28.31 106.24 L26.88 105.83 L25.56 105.36 L24.32 104.85 L23.17 104.29 L22.10 103.69 L21.09 103.03 L20.15 102.32 L19.27 101.55 L18.45 100.73 L17.68 99.85 L16.97 98.91 L16.31 97.90 L15.71 96.83 L15.15 95.68 L14.64 94.44 L14.17 93.12 L13.76 91.69 L13.39 90.16 L13.06 88.48 L12.78 86.65 L12.54 84.61 L12.34 82.32 L12.19 79.66 L12.09 76.43 L12.02 72.08 L12.00 60.00 L12.02 47.92 L12.09 43.57 L12.19 40.34 L12.34 37.68 L12.54 35.39 L12.78 33.35 L13.06 31.52 L13.39 29.84 L13.76 28.31 L14.17 26.88 L14.64 25.56 L15.15 24.32 L15.71 23.17 L16.31 22.10 L16.97 21.09 L17.68 20.15 L18.45 19.27 L19.27 18.45 L20.15 17.68 L21.09 16.97 L22.10 16.31 L23.17 15.71 L24.32 15.15 L25.56 14.64 L26.88 14.17 L28.31 13.76 L29.84 13.39 L31.52 13.06 L33.35 12.78 L35.39 12.54 L37.68 12.34 L40.34 12.19 L43.57 12.09 L47.92 12.02 L60.00 12.00 L72.08 12.02 L76.43 12.09 L79.66 12.19 L82.32 12.34 L84.61 12.54 L86.65 12.78 L88.48 13.06 L90.16 13.39 L91.69 13.76 L93.12 14.17 L94.44 14.64 L95.68 15.15 L96.83 15.71 L97.90 16.31 L98.91 16.97 L99.85 17.68 L100.73 18.45 L101.55 19.27 L102.32 20.15 L103.03 21.09 L103.69 22.10 L104.29 23.17 L104.85 24.32 L105.36 25.56 L105.83 26.88 L106.24 28.31 L106.61 29.84 L106.94 31.52 L107.22 33.35 L107.46 35.39 L107.66 37.68 L107.81 40.34 L107.91 43.57 L107.98 47.92 Z"></path></clipPath>
<filter id="amb" x="-25%" y="-25%" width="150%" height="160%"><feDropShadow dx="0" dy="3" stdDeviation="3" flood-color="#11491f" flood-opacity="0.42"></feDropShadow></filter>
<filter id="ns" x="-35%" y="-35%" width="170%" height="170%"><feDropShadow dx="0" dy="1.6" stdDeviation="1.8" flood-color="#082810" flood-opacity="0.26"></feDropShadow></filter>
</defs>
<path d="M108.00 60.00 L107.98 72.08 L107.91 76.43 L107.81 79.66 L107.66 82.32 L107.46 84.61 L107.22 86.65 L106.94 88.48 L106.61 90.16 L106.24 91.69 L105.83 93.12 L105.36 94.44 L104.85 95.68 L104.29 96.83 L103.69 97.90 L103.03 98.91 L102.32 99.85 L101.55 100.73 L100.73 101.55 L99.85 102.32 L98.91 103.03 L97.90 103.69 L96.83 104.29 L95.68 104.85 L94.44 105.36 L93.12 105.83 L91.69 106.24 L90.16 106.61 L88.48 106.94 L86.65 107.22 L84.61 107.46 L82.32 107.66 L79.66 107.81 L76.43 107.91 L72.08 107.98 L60.00 108.00 L47.92 107.98 L43.57 107.91 L40.34 107.81 L37.68 107.66 L35.39 107.46 L33.35 107.22 L31.52 106.94 L29.84 106.61 L28.31 106.24 L26.88 105.83 L25.56 105.36 L24.32 104.85 L23.17 104.29 L22.10 103.69 L21.09 103.03 L20.15 102.32 L19.27 101.55 L18.45 100.73 L17.68 99.85 L16.97 98.91 L16.31 97.90 L15.71 96.83 L15.15 95.68 L14.64 94.44 L14.17 93.12 L13.76 91.69 L13.39 90.16 L13.06 88.48 L12.78 86.65 L12.54 84.61 L12.34 82.32 L12.19 79.66 L12.09 76.43 L12.02 72.08 L12.00 60.00 L12.02 47.92 L12.09 43.57 L12.19 40.34 L12.34 37.68 L12.54 35.39 L12.78 33.35 L13.06 31.52 L13.39 29.84 L13.76 28.31 L14.17 26.88 L14.64 25.56 L15.15 24.32 L15.71 23.17 L16.31 22.10 L16.97 21.09 L17.68 20.15 L18.45 19.27 L19.27 18.45 L20.15 17.68 L21.09 16.97 L22.10 16.31 L23.17 15.71 L24.32 15.15 L25.56 14.64 L26.88 14.17 L28.31 13.76 L29.84 13.39 L31.52 13.06 L33.35 12.78 L35.39 12.54 L37.68 12.34 L40.34 12.19 L43.57 12.09 L47.92 12.02 L60.00 12.00 L72.08 12.02 L76.43 12.09 L79.66 12.19 L82.32 12.34 L84.61 12.54 L86.65 12.78 L88.48 13.06 L90.16 13.39 L91.69 13.76 L93.12 14.17 L94.44 14.64 L95.68 15.15 L96.83 15.71 L97.90 16.31 L98.91 16.97 L99.85 17.68 L100.73 18.45 L101.55 19.27 L102.32 20.15 L103.03 21.09 L103.69 22.10 L104.29 23.17 L104.85 24.32 L105.36 25.56 L105.83 26.88 L106.24 28.31 L106.61 29.84 L106.94 31.52 L107.22 33.35 L107.46 35.39 L107.66 37.68 L107.81 40.34 L107.91 43.57 L107.98 47.92 Z" fill="url(#g)" filter="url(#amb)"></path>
<rect x="0" y="0" width="120" height="66" fill="url(#gl)" clip-path="url(#cp)"></rect>
<rect x="0" y="88" width="120" height="32" fill="#0d5e26" opacity="0.10" clip-path="url(#cp)"></rect>
<g transform="translate(12,12) scale(0.96)">
<rect x="24" y="20" width="52" height="60" rx="8" fill="#ffffff" filter="url(#ns)"></rect>
<path d="M33 38 l3 3 l6 -8" fill="none" stroke="#1FA14C" stroke-width="3.2" stroke-linecap="round" stroke-linejoin="round"></path>
<rect x="46" y="36" width="23" height="4" rx="2" fill="#E7E9EC"></rect>
<path d="M33 53 l3 3 l6 -8" fill="none" stroke="#1FA14C" stroke-width="3.2" stroke-linecap="round" stroke-linejoin="round"></path>
<rect x="46" y="51" width="25" height="4" rx="2" fill="#E7E9EC"></rect>
<rect x="31" y="64" width="8" height="8" rx="2.4" fill="#ffffff" stroke="#C7D0C7" stroke-width="2"></rect>
<rect x="46" y="66" width="18" height="4" rx="2" fill="#ECEEF0"></rect>
</g>
</svg>